<svg viewBox="0 0 281 100" focusable="false" xmlns="http://www.w3.org/2000/svg"><g clip-path="url(#clip0_7193_128170)"><path d="M270.947 33.9972H138.587V9.45465H270.947V33.9972ZM129.131 0V43.45H280.402V0H129.131Z" fill="#01A982"></path><path d="M25.6843 89.2974V85.4041H19.9123V77.1018H34.8959V94.6797C30.868 98.2602 25.6228 100.164 20.236 100C7.78264 100 0 91.5659 0 79.5681C0 67.0468 8.62607 58.8764 21.2753 58.8764C25.3373 58.8266 29.3334 59.9045 32.8194 61.9902V72.1073C29.4756 69.6597 25.4182 68.3827 21.2753 68.4738C14.9177 68.4738 10.4428 72.6928 10.4428 79.5681C10.4428 86.3115 14.528 90.7244 20.5618 90.7244C22.3788 90.8159 24.1764 90.3152 25.6843 89.2974ZM59.4847 79.8279C58.1772 79.1768 56.7274 78.8636 55.2677 78.9166C52.4796 78.9166 50.5989 80.1497 50.0792 82.2243V99.3485H39.8962V70.1607H50.0792V72.7549C50.8397 71.7221 51.8382 70.8881 52.9899 70.3237C54.1416 69.7593 55.4125 69.4812 56.6947 69.5131C57.652 69.4737 58.6058 69.6514 59.4847 70.0327L59.4847 79.8279ZM71.4864 87.0909C72.3298 90.5925 75.1838 92.0195 78.9452 92.0195C81.9257 92.0984 84.8618 91.2855 87.3774 89.6851V97.4018C85.107 99.0887 81.5395 100 77.3243 100C67.9848 100 61.6272 94.354 61.6272 84.9504C61.6272 75.8067 67.725 69.5131 75.7674 69.5131C84.8472 69.5131 89.454 75.415 89.454 84.109V87.091L71.4864 87.0909ZM71.6163 81.3829H80.3723C80.1125 78.9166 78.6215 77.2298 76.1572 77.2298C73.9507 77.2298 72.3298 78.7228 71.6163 81.3829ZM102.105 87.091C102.949 90.5926 105.803 92.0196 109.564 92.0196C112.544 92.0984 115.481 91.2856 117.996 89.6852V97.4019C115.726 99.0887 112.158 100 107.943 100C98.6035 100 92.2459 94.354 92.2459 84.9504C92.2459 75.8067 98.3437 69.5131 106.386 69.5131C115.466 69.5131 120.073 75.415 120.073 84.1089V87.0909L102.105 87.091ZM102.235 81.383H110.991C110.731 78.9167 109.24 77.2299 106.776 77.2299C104.569 77.2298 102.949 78.7228 102.235 81.383ZM134.345 70.1608V72.6929C135.363 71.6508 136.586 70.8304 137.937 70.2833C139.288 69.7361 140.737 69.4739 142.193 69.5132C148.679 69.5132 152.506 73.7283 152.506 80.2158V99.3485H142.387V82.682C142.387 80.2816 141.156 78.5289 138.562 78.5289C137.6 78.493 136.656 78.7896 135.888 79.3688C135.12 79.9481 134.575 80.7744 134.345 81.7087V99.3486H124.162V70.1607L134.345 70.1608ZM168.533 59.524V90.3327H186.369V99.3485H158.09V59.524H168.533ZM206.936 81.7706C206.936 79.5022 204.86 77.8812 200.709 77.8812C197.915 77.8683 195.166 78.5833 192.732 79.9558V71.7815C195.991 70.2273 199.565 69.4507 203.175 69.5131C211.801 69.5131 216.73 73.6002 216.73 81.3169V99.3485H206.936V97.8595C205.963 98.8289 203.175 99.8681 200.061 99.8681C194.289 99.8681 189.358 96.6263 189.358 90.4646C189.358 84.8224 194.289 81.189 200.581 81.189C202.805 81.1617 204.997 81.7207 206.936 82.8099V81.7706ZM206.936 89.4912C206.492 88.8257 205.881 88.2892 205.163 87.9358C204.446 87.5824 203.647 87.4248 202.849 87.4787C200.839 87.4787 198.828 88.324 198.828 90.2707C198.828 92.2794 200.839 93.1247 202.849 93.1247C203.64 93.1752 204.43 93.0229 205.146 92.6822C205.861 92.3416 206.477 91.8238 206.936 91.1781V89.4912ZM240.995 99.3485L232.173 86.5713V99.3485H221.99V57.1896H232.173V81.189L240.475 70.1607H252.151L241.318 83.6514L252.411 99.3485L240.995 99.3485ZM262.274 87.091C263.117 90.5926 265.971 92.0196 269.733 92.0196C272.713 92.0984 275.649 91.2856 278.165 89.6852V97.4019C275.894 99.0887 272.327 100 268.112 100C258.772 100 252.415 94.354 252.415 84.9504C252.415 75.8067 258.512 69.5131 266.555 69.5131C275.635 69.5131 280.241 75.415 280.241 84.1089V87.0909L262.274 87.091ZM262.404 81.383H271.16C270.9 78.9167 269.409 77.2299 266.945 77.2299C264.738 77.2298 263.117 78.7228 262.404 81.383ZM41.3679 43.4497H29.9789V26.2596H13.2134V43.4497H1.82448V0.0169678H13.2135V16.4974H29.9789V0.0169678H41.3679L41.3679 43.4497ZM59.0562 43.4497H47.8088V0.0169678H66.8389C76.2463 0.0169678 82.6136 5.32174 82.6136 15.0122C82.6136 24.6329 76.2463 29.9377 66.8389 29.9377H59.0562V43.4497ZM65.6348 9.56591H59.0562V20.4605H65.6348C69.7375 20.4605 71.5775 18.2676 71.5775 15.0122C71.5775 11.689 69.7375 9.56591 65.6348 9.56591ZM118.553 9.77725H98.6752V16.5691H116.854V26.1181H98.6752V33.6177H118.553V43.4497H87.4976V0.0169678H118.553V9.77725Z"></path></g></svg>
